<svg xmlns="http://www.w3.org/2000/svg" viewBox="0 0 500 500" width="32" height="32">
  <rect width="100%" height="100%" fill="#000000" rx="60"/>
  <g transform="translate(0, 20)">
    <path d="M 250 315 C 210 290, 140 290, 110 295 L 110 175 C 140 170, 210 170, 250 195 Z" fill="#2b76a0" stroke="#000" stroke-width="7" stroke-linejoin="round"/>
    <path d="M 250 315 C 290 290, 360 290, 390 295 L 390 175 C 360 170, 290 170, 250 195 Z" fill="#2b76a0" stroke="#000" stroke-width="7" stroke-linejoin="round"/>
    <path d="M 250 300 C 210 275, 140 275, 115 280 L 115 160 C 140 155, 210 155, 250 180 Z" fill="#56a2d0" stroke="#000" stroke-width="7" stroke-linejoin="round"/>
    <path d="M 250 300 C 290 275, 360 275, 385 280 L 385 160 C 360 155, 290 155, 250 180 Z" fill="#56a2d0" stroke="#000" stroke-width="7" stroke-linejoin="round"/>
    <path d="M 250 285 C 210 260, 140 260, 120 270 L 120 150 C 140 140, 210 140, 250 165 Z" fill="#8ecbf2" stroke="#000" stroke-width="7" stroke-linejoin="round"/>
    <path d="M 250 285 C 290 260, 360 260, 380 270 L 380 150 C 360 140, 290 140, 250 165 Z" fill="#f4b183" stroke="#000" stroke-width="7" stroke-linejoin="round"/>
    <line x1="250" y1="165" x2="250" y2="315" stroke="#000" stroke-width="7" stroke-linecap="round"/>
    <text x="185" y="255" font-family="system-ui, -apple-system, 'Segoe UI', Arial, sans-serif" font-size="120" font-weight="900" fill="#181818" text-anchor="middle" transform="rotate(-5 185 255)">A</text>
    <text x="315" y="255" font-family="system-ui, -apple-system, 'Segoe UI', Arial, sans-serif" font-size="120" font-weight="900" fill="#181818" text-anchor="middle" transform="rotate(5 315 255)">B</text>
  </g>
</svg>
