<svg xmlns="http://www.w3.org/2000/svg" viewBox="0 0 500 500" width="100%" height="100%" class="app-logo">
<defs>
<filter id="shadow" x="-20%" y="-20%" width="140%" height="140%">
<feDropShadow dx="0" dy="8" stdDeviation="12" flood-color="#000000" flood-opacity="0.15"/>
</filter>
</defs>

<g transform="translate(250, 250) scale(1.5) translate(-250, -225)" filter="url(#shadow)">

<path d="M 250 315 C 210 290, 140 290, 110 295 L 110 175 C 140 170, 210 170, 250 195 Z" fill="#2b76a0" stroke="#1c3752" stroke-width="6" stroke-linejoin="round"></path>
<path d="M 250 315 C 290 290, 360 290, 390 295 L 390 175 C 360 170, 290 170, 250 195 Z" fill="#2b76a0" stroke="#1c3752" stroke-width="6" stroke-linejoin="round"></path>

<path d="M 250 300 C 210 275, 140 275, 115 280 L 115 160 C 140 155, 210 155, 250 180 Z" fill="#56a2d0" stroke="#1c3752" stroke-width="6" stroke-linejoin="round"></path>
<path d="M 250 300 C 290 275, 360 275, 385 280 L 385 160 C 360 155, 290 155, 250 180 Z" fill="#56a2d0" stroke="#1c3752" stroke-width="6" stroke-linejoin="round"></path>

<path d="M 250 285 C 210 260, 140 260, 120 270 L 120 150 C 140 140, 210 140, 250 165 Z" fill="#8ecbf2" stroke="#1c3752" stroke-width="6" stroke-linejoin="round"></path>
<path d="M 250 285 C 290 260, 360 260, 380 270 L 380 150 C 360 140, 290 140, 250 165 Z" fill="#f4b183" stroke="#1c3752" stroke-width="6" stroke-linejoin="round"></path>

<line x1="250" y1="165" x2="250" y2="315" stroke="#1c3752" stroke-width="6" stroke-linecap="round"></line>

<text x="185" y="255" font-family="system-ui, -apple-system, 'Segoe UI', Arial, sans-serif" font-size="90" font-weight="900" fill="#1c3752" text-anchor="middle" transform="rotate(-5 185 255)"> A </text>
<text x="315" y="255" font-family="system-ui, -apple-system, 'Segoe UI', Arial, sans-serif" font-size="90" font-weight="900" fill="#1c3752" text-anchor="middle" transform="rotate(5 315 255)"> B </text>
</g>
</svg>